solid
facet normal 0.0 -1.0 0.0
 outer loop
  vertex 0.0 0.0 0.0
  vertex 0.1666666666663216 0.0 0.0
  vertex 0.12200846792784215 0.0 0.12200846792784215
 endloop
endfacet
facet normal 0.0 -1.0 0.0
 outer loop
  vertex 0.0 0.0 0.1666666666663216
  vertex 0.0 0.0 0.0
  vertex 0.12200846792784215 0.0 0.12200846792784215
 endloop
endfacet
facet normal 0.0 -1.0 0.0
 outer loop
  vertex 1.0 0.0 0.0
  vertex 0.8888888888887586 0.0 0.1111111111112414
  vertex 0.8333333333328952 0.0 0.0
 endloop
endfacet
facet normal 0.0 -1.0 0.0
 outer loop
  vertex 0.0 0.0 0.8333333333328952
  vertex 0.11111111111148875 0.0 0.8888888888885113
  vertex 0.0 0.0 1.0
 endloop
endfacet
facet normal 0.0 -1.0 0.0
 outer loop
  vertex 0.1666666666663216 0.0 0.0
  vertex 0.3333333333325026 0.0 0.0
  vertex 0.26165001985073516 0.0 0.1609451833999168
 endloop
endfacet
facet normal 0.0 -1.0 0.0
 outer loop
  vertex 0.1666666666663216 0.0 0.0
  vertex 0.26165001985073516 0.0 0.1609451833999168
  vertex 0.12200846792784215 0.0 0.12200846792784215
 endloop
endfacet
facet normal 0.0 -1.0 0.0
 outer loop
  vertex 0.3333333333325026 0.0 0.0
  vertex 0.4999999999986945 0.0 0.0
  vertex 0.41666666666559854 0.0 0.14433756729699057
 endloop
endfacet
facet normal 0.0 -1.0 0.0
 outer loop
  vertex 0.3333333333325026 0.0 0.0
  vertex 0.41666666666559854 0.0 0.14433756729699057
  vertex 0.26165001985073516 0.0 0.1609451833999168
 endloop
endfacet
facet normal 0.0 -1.0 0.0
 outer loop
  vertex 0.4999999999986945 0.0 0.0
  vertex 0.6666666666657901 0.0 0.0
  vertex 0.5406938011430714 0.0 0.11600970773324981
 endloop
endfacet
facet normal 0.0 -1.0 0.0
 outer loop
  vertex 0.41666666666559854 0.0 0.14433756729699057
  vertex 0.4999999999986945 0.0 0.0
  vertex 0.5406938011430714 0.0 0.11600970773324981
 endloop
endfacet
facet normal 0.0 -1.0 0.0
 outer loop
  vertex 0.6666666666657901 0.0 0.0
  vertex 0.8333333333328952 0.0 0.0
  vertex 0.7641539777404048 0.0 0.10212255462795623
 endloop
endfacet
facet normal 0.0 -1.0 0.0
 outer loop
  vertex 0.6541032220364721 0.0 0.17727943980664768
  vertex 0.6666666666657901 0.0 0.0
  vertex 0.7641539777404048 0.0 0.10212255462795623
 endloop
endfacet
facet normal 0.0 -1.0 0.0
 outer loop
  vertex 0.6666666666657901 0.0 0.0
  vertex 0.6541032220364721 0.0 0.17727943980664768
  vertex 0.5406938011430714 0.0 0.11600970773324981
 endloop
endfacet
facet normal 0.0 -1.0 0.0
 outer loop
  vertex 0.8333333333328952 0.0 0.0
  vertex 0.8888888888887586 0.0 0.1111111111112414
  vertex 0.7641539777404048 0.0 0.10212255462795623
 endloop
endfacet
facet normal 0.0 -1.0 0.0
 outer loop
  vertex 0.0 0.0 0.3333333333325026
  vertex 0.0 0.0 0.1666666666663216
  vertex 0.13812854025504284 0.0 0.25124282765821504
 endloop
endfacet
facet normal 0.0 -1.0 0.0
 outer loop
  vertex 0.13812854025504284 0.0 0.25124282765821504
  vertex 0.0 0.0 0.1666666666663216
  vertex 0.12200846792784215 0.0 0.12200846792784215
 endloop
endfacet
facet normal 0.0 -1.0 0.0
 outer loop
  vertex 0.0 0.0 0.4999999999986945
  vertex 0.0 0.0 0.3333333333325026
  vertex 0.14344395857216646 0.0 0.4182144423799884
 endloop
endfacet
facet normal 0.0 -1.0 0.0
 outer loop
  vertex 0.0 0.0 0.3333333333325026
  vertex 0.13812854025504284 0.0 0.25124282765821504
  vertex 0.14344395857216646 0.0 0.4182144423799884
 endloop
endfacet
facet normal 0.0 -1.0 0.0
 outer loop
  vertex 0.0 0.0 0.6666666666657901
  vertex 0.0 0.0 0.4999999999986945
  vertex 0.15554235944104752 0.0 0.6159236811463423
 endloop
endfacet
facet normal 0.0 -1.0 0.0
 outer loop
  vertex 0.15554235944104752 0.0 0.6159236811463423
  vertex 0.0 0.0 0.4999999999986945
  vertex 0.14344395857216646 0.0 0.4182144423799884
 endloop
endfacet
facet normal 0.0 -1.0 0.0
 outer loop
  vertex 0.0 0.0 0.8333333333328952
  vertex 0.0 0.0 0.6666666666657901
  vertex 0.09777513855510274 0.0 0.7565180695621123
 endloop
endfacet
facet normal 0.0 -1.0 0.0
 outer loop
  vertex 0.0 0.0 0.6666666666657901
  vertex 0.15554235944104752 0.0 0.6159236811463423
  vertex 0.09777513855510274 0.0 0.7565180695621123
 endloop
endfacet
facet normal 0.0 -1.0 0.0
 outer loop
  vertex 0.11111111111148875 0.0 0.8888888888885113
  vertex 0.0 0.0 0.8333333333328952
  vertex 0.09777513855510274 0.0 0.7565180695621123
 endloop
endfacet
facet normal -0.0 -1.0 0.0
 outer loop
  vertex 0.8888888888887586 0.0 0.1111111111112414
  vertex 0.777777777778108 0.0 0.222222222221892
  vertex 0.7641539777404048 0.0 0.10212255462795623
 endloop
endfacet
facet normal -0.0 -1.0 0.0
 outer loop
  vertex 0.777777777778108 0.0 0.222222222221892
  vertex 0.6666666666675445 0.0 0.3333333333324556
  vertex 0.6541032220364721 0.0 0.17727943980664768
 endloop
endfacet
facet normal 0.0 -1.0 0.0
 outer loop
  vertex 0.777777777778108 0.0 0.222222222221892
  vertex 0.6541032220364721 0.0 0.17727943980664768
  vertex 0.7641539777404048 0.0 0.10212255462795623
 endloop
endfacet
facet normal -0.0 -1.0 0.0
 outer loop
  vertex 0.6666666666675445 0.0 0.3333333333324556
  vertex 0.5555555555569809 0.0 0.44444444444301906
  vertex 0.5168652413994379 0.0 0.26997226911230954
 endloop
endfacet
facet normal 0.0 -1.0 0.0
 outer loop
  vertex 0.6541032220364721 0.0 0.17727943980664768
  vertex 0.6666666666675445 0.0 0.3333333333324556
  vertex 0.5168652413994379 0.0 0.26997226911230954
 endloop
endfacet
facet normal -0.0 -1.0 0.0
 outer loop
  vertex 0.5555555555569809 0.0 0.44444444444301906
  vertex 0.44444444444595466 0.0 0.5555555555540453
  vertex 0.40959628007735793 0.0 0.4025521601593989
 endloop
endfacet
facet normal 0.0 -1.0 0.0
 outer loop
  vertex 0.5555555555569809 0.0 0.44444444444301906
  vertex 0.40959628007735793 0.0 0.4025521601593989
  vertex 0.5168652413994379 0.0 0.26997226911230954
 endloop
endfacet
facet normal -0.0 -1.0 0.0
 outer loop
  vertex 0.44444444444595466 0.0 0.5555555555540453
  vertex 0.333333333334466 0.0 0.666666666665534
  vertex 0.2926236962545957 0.0 0.49894772924740327
 endloop
endfacet
facet normal 0.0 -1.0 0.0
 outer loop
  vertex 0.40959628007735793 0.0 0.4025521601593989
  vertex 0.44444444444595466 0.0 0.5555555555540453
  vertex 0.2926236962545957 0.0 0.49894772924740327
 endloop
endfacet
facet normal -0.0 -1.0 0.0
 outer loop
  vertex 0.333333333334466 0.0 0.666666666665534
  vertex 0.22222222222297738 0.0 0.7777777777770226
  vertex 0.15554235944104752 0.0 0.6159236811463423
 endloop
endfacet
facet normal 0.0 -1.0 0.0
 outer loop
  vertex 0.333333333334466 0.0 0.666666666665534
  vertex 0.15554235944104752 0.0 0.6159236811463423
  vertex 0.2926236962545957 0.0 0.49894772924740327
 endloop
endfacet
facet normal -0.0 -1.0 0.0
 outer loop
  vertex 0.22222222222297738 0.0 0.7777777777770226
  vertex 0.11111111111148875 0.0 0.8888888888885113
  vertex 0.09777513855510274 0.0 0.7565180695621123
 endloop
endfacet
facet normal 0.0 -1.0 0.0
 outer loop
  vertex 0.15554235944104752 0.0 0.6159236811463423
  vertex 0.22222222222297738 0.0 0.7777777777770226
  vertex 0.09777513855510274 0.0 0.7565180695621123
 endloop
endfacet
facet normal -0.0 -1.0 0.0
 outer loop
  vertex 0.40959628007735793 0.0 0.4025521601593989
  vertex 0.2926236962545957 0.0 0.49894772924740327
  vertex 0.2693818016565821 0.0 0.3347738695791109
 endloop
endfacet
facet normal -0.0 -1.0 0.0
 outer loop
  vertex 0.5168652413994379 0.0 0.26997226911230954
  vertex 0.40959628007735793 0.0 0.4025521601593989
  vertex 0.37483200192994237 0.0 0.26251620990954533
 endloop
endfacet
facet normal 0.0 -1.0 0.0
 outer loop
  vertex 0.40959628007735793 0.0 0.4025521601593989
  vertex 0.2693818016565821 0.0 0.3347738695791109
  vertex 0.37483200192994237 0.0 0.26251620990954533
 endloop
endfacet
facet normal 0.0 -1.0 -0.0
 outer loop
  vertex 0.14344395857216646 0.0 0.4182144423799884
  vertex 0.13812854025504284 0.0 0.25124282765821504
  vertex 0.2693818016565821 0.0 0.3347738695791109
 endloop
endfacet
facet normal 0.0 -1.0 0.0
 outer loop
  vertex 0.13812854025504284 0.0 0.25124282765821504
  vertex 0.26165001985073516 0.0 0.1609451833999168
  vertex 0.2693818016565821 0.0 0.3347738695791109
 endloop
endfacet
facet normal -0.0 -1.0 0.0
 outer loop
  vertex 0.26165001985073516 0.0 0.1609451833999168
  vertex 0.13812854025504284 0.0 0.25124282765821504
  vertex 0.12200846792784215 0.0 0.12200846792784215
 endloop
endfacet
facet normal 0.0 -1.0 0.0
 outer loop
  vertex 0.41666666666559854 0.0 0.14433756729699057
  vertex 0.5168652413994379 0.0 0.26997226911230954
  vertex 0.37483200192994237 0.0 0.26251620990954533
 endloop
endfacet
facet normal 0.0 -1.0 -0.0
 outer loop
  vertex 0.5168652413994379 0.0 0.26997226911230954
  vertex 0.41666666666559854 0.0 0.14433756729699057
  vertex 0.5406938011430714 0.0 0.11600970773324981
 endloop
endfacet
facet normal 0.0 -1.0 0.0
 outer loop
  vertex 0.26165001985073516 0.0 0.1609451833999168
  vertex 0.41666666666559854 0.0 0.14433756729699057
  vertex 0.37483200192994237 0.0 0.26251620990954533
 endloop
endfacet
facet normal 0.0 -1.0 -0.0
 outer loop
  vertex 0.15554235944104752 0.0 0.6159236811463423
  vertex 0.14344395857216646 0.0 0.4182144423799884
  vertex 0.2926236962545957 0.0 0.49894772924740327
 endloop
endfacet
facet normal -0.0 -1.0 0.0
 outer loop
  vertex 0.6541032220364721 0.0 0.17727943980664768
  vertex 0.5168652413994379 0.0 0.26997226911230954
  vertex 0.5406938011430714 0.0 0.11600970773324981
 endloop
endfacet
facet normal 0.0 -1.0 0.0
 outer loop
  vertex 0.2926236962545957 0.0 0.49894772924740327
  vertex 0.14344395857216646 0.0 0.4182144423799884
  vertex 0.2693818016565821 0.0 0.3347738695791109
 endloop
endfacet
facet normal 0.0 -1.0 -0.0
 outer loop
  vertex 0.2693818016565821 0.0 0.3347738695791109
  vertex 0.26165001985073516 0.0 0.1609451833999168
  vertex 0.37483200192994237 0.0 0.26251620990954533
 endloop
endfacet
facet normal 0.0 0.0 1.0
 outer loop
  vertex 0.0 0.0 0.0
  vertex 0.1666666666663216 0.0 0.0
  vertex 0.12200846792784215 0.12200846792784215 0.0
 endloop
endfacet
facet normal 0.0 0.0 1.0
 outer loop
  vertex 0.0 0.1666666666663216 0.0
  vertex 0.0 0.0 0.0
  vertex 0.12200846792784215 0.12200846792784215 0.0
 endloop
endfacet
facet normal 0.0 0.0 1.0
 outer loop
  vertex 0.8333333333328952 0.0 0.0
  vertex 1.0 0.0 0.0
  vertex 0.8888888888887586 0.1111111111112414 0.0
 endloop
endfacet
facet normal 0.0 0.0 1.0
 outer loop
  vertex 0.0 0.8333333333328952 0.0
  vertex 0.11111111111148875 0.8888888888885113 0.0
  vertex 0.0 1.0 0.0
 endloop
endfacet
facet normal 0.0 0.0 1.0
 outer loop
  vertex 0.1666666666663216 0.0 0.0
  vertex 0.3333333333325026 0.0 0.0
  vertex 0.26165001985073516 0.1609451833999168 0.0
 endloop
endfacet
facet normal 0.0 -0.0 1.0
 outer loop
  vertex 0.1666666666663216 0.0 0.0
  vertex 0.26165001985073516 0.1609451833999168 0.0
  vertex 0.12200846792784215 0.12200846792784215 0.0
 endloop
endfacet
facet normal 0.0 0.0 1.0
 outer loop
  vertex 0.3333333333325026 0.0 0.0
  vertex 0.4999999999986945 0.0 0.0
  vertex 0.41666666666559854 0.14433756729699057 0.0
 endloop
endfacet
facet normal 0.0 -0.0 1.0
 outer loop
  vertex 0.3333333333325026 0.0 0.0
  vertex 0.41666666666559854 0.14433756729699057 0.0
  vertex 0.26165001985073516 0.1609451833999168 0.0
 endloop
endfacet
facet normal 0.0 0.0 1.0
 outer loop
  vertex 0.4999999999986945 0.0 0.0
  vertex 0.6666666666657901 0.0 0.0
  vertex 0.5406938011430714 0.11600970773324981 0.0
 endloop
endfacet
facet normal 0.0 0.0 1.0
 outer loop
  vertex 0.41666666666559854 0.14433756729699057 0.0
  vertex 0.4999999999986945 0.0 0.0
  vertex 0.5406938011430714 0.11600970773324981 0.0
 endloop
endfacet
facet normal 0.0 0.0 1.0
 outer loop
  vertex 0.6666666666657901 0.0 0.0
  vertex 0.8333333333328952 0.0 0.0
  vertex 0.7641539777404048 0.10212255462795623 0.0
 endloop
endfacet
facet normal 0.0 0.0 1.0
 outer loop
  vertex 0.6541032220364721 0.17727943980664768 0.0
  vertex 0.6666666666657901 0.0 0.0
  vertex 0.7641539777404048 0.10212255462795623 0.0
 endloop
endfacet
facet normal 0.0 0.0 1.0
 outer loop
  vertex 0.6666666666657901 0.0 0.0
  vertex 0.6541032220364721 0.17727943980664768 0.0
  vertex 0.5406938011430714 0.11600970773324981 0.0
 endloop
endfacet
facet normal 0.0 -0.0 1.0
 outer loop
  vertex 0.8333333333328952 0.0 0.0
  vertex 0.8888888888887586 0.1111111111112414 0.0
  vertex 0.7641539777404048 0.10212255462795623 0.0
 endloop
endfacet
facet normal 0.0 0.0 1.0
 outer loop
  vertex 0.0 0.3333333333325026 0.0
  vertex 0.0 0.1666666666663216 0.0
  vertex 0.13812854025504284 0.25124282765821504 0.0
 endloop
endfacet
facet normal 0.0 0.0 1.0
 outer loop
  vertex 0.13812854025504284 0.25124282765821504 0.0
  vertex 0.0 0.1666666666663216 0.0
  vertex 0.12200846792784215 0.12200846792784215 0.0
 endloop
endfacet
facet normal 0.0 0.0 1.0
 outer loop
  vertex 0.0 0.4999999999986945 0.0
  vertex 0.0 0.3333333333325026 0.0
  vertex 0.14344395857216646 0.4182144423799884 0.0
 endloop
endfacet
facet normal -0.0 0.0 1.0
 outer loop
  vertex 0.0 0.3333333333325026 0.0
  vertex 0.13812854025504284 0.25124282765821504 0.0
  vertex 0.14344395857216646 0.4182144423799884 0.0
 endloop
endfacet
facet normal 0.0 0.0 1.0
 outer loop
  vertex 0.0 0.6666666666657901 0.0
  vertex 0.0 0.4999999999986945 0.0
  vertex 0.15554235944104752 0.6159236811463423 0.0
 endloop
endfacet
facet normal 0.0 0.0 1.0
 outer loop
  vertex 0.15554235944104752 0.6159236811463423 0.0
  vertex 0.0 0.4999999999986945 0.0
  vertex 0.14344395857216646 0.4182144423799884 0.0
 endloop
endfacet
facet normal 0.0 0.0 1.0
 outer loop
  vertex 0.0 0.8333333333328952 0.0
  vertex 0.0 0.6666666666657901 0.0
  vertex 0.09777513855510274 0.7565180695621123 0.0
 endloop
endfacet
facet normal -0.0 0.0 1.0
 outer loop
  vertex 0.0 0.6666666666657901 0.0
  vertex 0.15554235944104752 0.6159236811463423 0.0
  vertex 0.09777513855510274 0.7565180695621123 0.0
 endloop
endfacet
facet normal 0.0 0.0 1.0
 outer loop
  vertex 0.11111111111148875 0.8888888888885113 0.0
  vertex 0.0 0.8333333333328952 0.0
  vertex 0.09777513855510274 0.7565180695621123 0.0
 endloop
endfacet
facet normal 0.0 0.0 1.0
 outer loop
  vertex 0.8888888888887586 0.1111111111112414 0.0
  vertex 0.777777777778108 0.222222222221892 0.0
  vertex 0.7641539777404048 0.10212255462795623 0.0
 endloop
endfacet
facet normal 0.0 0.0 1.0
 outer loop
  vertex 0.777777777778108 0.222222222221892 0.0
  vertex 0.6666666666675445 0.3333333333324556 0.0
  vertex 0.6541032220364721 0.17727943980664768 0.0
 endloop
endfacet
facet normal 0.0 0.0 1.0
 outer loop
  vertex 0.777777777778108 0.222222222221892 0.0
  vertex 0.6541032220364721 0.17727943980664768 0.0
  vertex 0.7641539777404048 0.10212255462795623 0.0
 endloop
endfacet
facet normal 0.0 0.0 1.0
 outer loop
  vertex 0.6666666666675445 0.3333333333324556 0.0
  vertex 0.5555555555569809 0.44444444444301906 0.0
  vertex 0.5168652413994379 0.26997226911230954 0.0
 endloop
endfacet
facet normal 0.0 -0.0 1.0
 outer loop
  vertex 0.6541032220364721 0.17727943980664768 0.0
  vertex 0.6666666666675445 0.3333333333324556 0.0
  vertex 0.5168652413994379 0.26997226911230954 0.0
 endloop
endfacet
facet normal 0.0 0.0 1.0
 outer loop
  vertex 0.5555555555569809 0.44444444444301906 0.0
  vertex 0.44444444444595466 0.5555555555540453 0.0
  vertex 0.40959628007735793 0.4025521601593989 0.0
 endloop
endfacet
facet normal 0.0 0.0 1.0
 outer loop
  vertex 0.5555555555569809 0.44444444444301906 0.0
  vertex 0.40959628007735793 0.4025521601593989 0.0
  vertex 0.5168652413994379 0.26997226911230954 0.0
 endloop
endfacet
facet normal 0.0 0.0 1.0
 outer loop
  vertex 0.44444444444595466 0.5555555555540453 0.0
  vertex 0.333333333334466 0.666666666665534 0.0
  vertex 0.2926236962545957 0.49894772924740327 0.0
 endloop
endfacet
facet normal 0.0 -0.0 1.0
 outer loop
  vertex 0.40959628007735793 0.4025521601593989 0.0
  vertex 0.44444444444595466 0.5555555555540453 0.0
  vertex 0.2926236962545957 0.49894772924740327 0.0
 endloop
endfacet
facet normal 0.0 0.0 1.0
 outer loop
  vertex 0.333333333334466 0.666666666665534 0.0
  vertex 0.22222222222297738 0.7777777777770226 0.0
  vertex 0.15554235944104752 0.6159236811463423 0.0
 endloop
endfacet
facet normal 0.0 0.0 1.0
 outer loop
  vertex 0.333333333334466 0.666666666665534 0.0
  vertex 0.15554235944104752 0.6159236811463423 0.0
  vertex 0.2926236962545957 0.49894772924740327 0.0
 endloop
endfacet
facet normal 0.0 0.0 1.0
 outer loop
  vertex 0.22222222222297738 0.7777777777770226 0.0
  vertex 0.11111111111148875 0.8888888888885113 0.0
  vertex 0.09777513855510274 0.7565180695621123 0.0
 endloop
endfacet
facet normal 0.0 -0.0 1.0
 outer loop
  vertex 0.15554235944104752 0.6159236811463423 0.0
  vertex 0.22222222222297738 0.7777777777770226 0.0
  vertex 0.09777513855510274 0.7565180695621123 0.0
 endloop
endfacet
facet normal 0.0 0.0 1.0
 outer loop
  vertex 0.40959628007735793 0.4025521601593989 0.0
  vertex 0.2926236962545957 0.49894772924740327 0.0
  vertex 0.2693818016565821 0.3347738695791109 0.0
 endloop
endfacet
facet normal 0.0 0.0 1.0
 outer loop
  vertex 0.5168652413994379 0.26997226911230954 0.0
  vertex 0.40959628007735793 0.4025521601593989 0.0
  vertex 0.37483200192994237 0.26251620990954533 0.0
 endloop
endfacet
facet normal 0.0 0.0 1.0
 outer loop
  vertex 0.40959628007735793 0.4025521601593989 0.0
  vertex 0.2693818016565821 0.3347738695791109 0.0
  vertex 0.37483200192994237 0.26251620990954533 0.0
 endloop
endfacet
facet normal 0.0 0.0 1.0
 outer loop
  vertex 0.14344395857216646 0.4182144423799884 0.0
  vertex 0.13812854025504284 0.25124282765821504 0.0
  vertex 0.2693818016565821 0.3347738695791109 0.0
 endloop
endfacet
facet normal -0.0 0.0 1.0
 outer loop
  vertex 0.13812854025504284 0.25124282765821504 0.0
  vertex 0.26165001985073516 0.1609451833999168 0.0
  vertex 0.2693818016565821 0.3347738695791109 0.0
 endloop
endfacet
facet normal 0.0 0.0 1.0
 outer loop
  vertex 0.26165001985073516 0.1609451833999168 0.0
  vertex 0.13812854025504284 0.25124282765821504 0.0
  vertex 0.12200846792784215 0.12200846792784215 0.0
 endloop
endfacet
facet normal 0.0 -0.0 1.0
 outer loop
  vertex 0.41666666666559854 0.14433756729699057 0.0
  vertex 0.5168652413994379 0.26997226911230954 0.0
  vertex 0.37483200192994237 0.26251620990954533 0.0
 endloop
endfacet
facet normal 0.0 0.0 1.0
 outer loop
  vertex 0.5168652413994379 0.26997226911230954 0.0
  vertex 0.41666666666559854 0.14433756729699057 0.0
  vertex 0.5406938011430714 0.11600970773324981 0.0
 endloop
endfacet
facet normal -0.0 0.0 1.0
 outer loop
  vertex 0.26165001985073516 0.1609451833999168 0.0
  vertex 0.41666666666559854 0.14433756729699057 0.0
  vertex 0.37483200192994237 0.26251620990954533 0.0
 endloop
endfacet
facet normal 0.0 0.0 1.0
 outer loop
  vertex 0.15554235944104752 0.6159236811463423 0.0
  vertex 0.14344395857216646 0.4182144423799884 0.0
  vertex 0.2926236962545957 0.49894772924740327 0.0
 endloop
endfacet
facet normal 0.0 0.0 1.0
 outer loop
  vertex 0.6541032220364721 0.17727943980664768 0.0
  vertex 0.5168652413994379 0.26997226911230954 0.0
  vertex 0.5406938011430714 0.11600970773324981 0.0
 endloop
endfacet
facet normal 0.0 0.0 1.0
 outer loop
  vertex 0.2926236962545957 0.49894772924740327 0.0
  vertex 0.14344395857216646 0.4182144423799884 0.0
  vertex 0.2693818016565821 0.3347738695791109 0.0
 endloop
endfacet
facet normal 0.0 0.0 1.0
 outer loop
  vertex 0.2693818016565821 0.3347738695791109 0.0
  vertex 0.26165001985073516 0.1609451833999168 0.0
  vertex 0.37483200192994237 0.26251620990954533 0.0
 endloop
endfacet
facet normal 1.0 0.0 0.0
 outer loop
  vertex 0.0 0.0 0.0
  vertex 0.0 0.1666666666663216 0.0
  vertex 0.0 0.12200846792784215 0.12200846792784215
 endloop
endfacet
facet normal 1.0 0.0 0.0
 outer loop
  vertex 0.0 0.0 0.1666666666663216
  vertex 0.0 0.0 0.0
  vertex 0.0 0.12200846792784215 0.12200846792784215
 endloop
endfacet
facet normal 1.0 0.0 0.0
 outer loop
  vertex 0.0 1.0 0.0
  vertex 0.0 0.8888888888887586 0.1111111111112414
  vertex 0.0 0.8333333333328952 0.0
 endloop
endfacet
facet normal 1.0 0.0 0.0
 outer loop
  vertex 0.0 0.0 0.8333333333328952
  vertex 0.0 0.11111111111148875 0.8888888888885113
  vertex 0.0 0.0 1.0
 endloop
endfacet
facet normal 1.0 0.0 0.0
 outer loop
  vertex 0.0 0.1666666666663216 0.0
  vertex 0.0 0.3333333333325026 0.0
  vertex 0.0 0.26165001985073516 0.1609451833999168
 endloop
endfacet
facet normal 1.0 0.0 -0.0
 outer loop
  vertex 0.0 0.1666666666663216 0.0
  vertex 0.0 0.26165001985073516 0.1609451833999168
  vertex 0.0 0.12200846792784215 0.12200846792784215
 endloop
endfacet
facet normal 1.0 0.0 0.0
 outer loop
  vertex 0.0 0.3333333333325026 0.0
  vertex 0.0 0.4999999999986945 0.0
  vertex 0.0 0.41666666666559854 0.14433756729699057
 endloop
endfacet
facet normal 1.0 0.0 -0.0
 outer loop
  vertex 0.0 0.3333333333325026 0.0
  vertex 0.0 0.41666666666559854 0.14433756729699057
  vertex 0.0 0.26165001985073516 0.1609451833999168
 endloop
endfacet
facet normal 1.0 0.0 0.0
 outer loop
  vertex 0.0 0.4999999999986945 0.0
  vertex 0.0 0.6666666666657901 0.0
  vertex 0.0 0.5406938011430714 0.11600970773324981
 endloop
endfacet
facet normal 1.0 0.0 0.0
 outer loop
  vertex 0.0 0.41666666666559854 0.14433756729699057
  vertex 0.0 0.4999999999986945 0.0
  vertex 0.0 0.5406938011430714 0.11600970773324981
 endloop
endfacet
facet normal 1.0 0.0 0.0
 outer loop
  vertex 0.0 0.6666666666657901 0.0
  vertex 0.0 0.8333333333328952 0.0
  vertex 0.0 0.7641539777404048 0.10212255462795623
 endloop
endfacet
facet normal 1.0 0.0 0.0
 outer loop
  vertex 0.0 0.6541032220364721 0.17727943980664768
  vertex 0.0 0.6666666666657901 0.0
  vertex 0.0 0.7641539777404048 0.10212255462795623
 endloop
endfacet
facet normal 1.0 0.0 0.0
 outer loop
  vertex 0.0 0.6666666666657901 0.0
  vertex 0.0 0.6541032220364721 0.17727943980664768
  vertex 0.0 0.5406938011430714 0.11600970773324981
 endloop
endfacet
facet normal 1.0 0.0 -0.0
 outer loop
  vertex 0.0 0.8333333333328952 0.0
  vertex 0.0 0.8888888888887586 0.1111111111112414
  vertex 0.0 0.7641539777404048 0.10212255462795623
 endloop
endfacet
facet normal 1.0 0.0 0.0
 outer loop
  vertex 0.0 0.0 0.3333333333325026
  vertex 0.0 0.0 0.1666666666663216
  vertex 0.0 0.13812854025504284 0.25124282765821504
 endloop
endfacet
facet normal 1.0 0.0 0.0
 outer loop
  vertex 0.0 0.13812854025504284 0.25124282765821504
  vertex 0.0 0.0 0.1666666666663216
  vertex 0.0 0.12200846792784215 0.12200846792784215
 endloop
endfacet
facet normal 1.0 0.0 0.0
 outer loop
  vertex 0.0 0.0 0.4999999999986945
  vertex 0.0 0.0 0.3333333333325026
  vertex 0.0 0.14344395857216646 0.4182144423799884
 endloop
endfacet
facet normal 1.0 -0.0 0.0
 outer loop
  vertex 0.0 0.0 0.3333333333325026
  vertex 0.0 0.13812854025504284 0.25124282765821504
  vertex 0.0 0.14344395857216646 0.4182144423799884
 endloop
endfacet
facet normal 1.0 0.0 0.0
 outer loop
  vertex 0.0 0.0 0.6666666666657901
  vertex 0.0 0.0 0.4999999999986945
  vertex 0.0 0.15554235944104752 0.6159236811463423
 endloop
endfacet
facet normal 1.0 0.0 0.0
 outer loop
  vertex 0.0 0.15554235944104752 0.6159236811463423
  vertex 0.0 0.0 0.4999999999986945
  vertex 0.0 0.14344395857216646 0.4182144423799884
 endloop
endfacet
facet normal 1.0 0.0 0.0
 outer loop
  vertex 0.0 0.0 0.8333333333328952
  vertex 0.0 0.0 0.6666666666657901
  vertex 0.0 0.09777513855510274 0.7565180695621123
 endloop
endfacet
facet normal 1.0 -0.0 0.0
 outer loop
  vertex 0.0 0.0 0.6666666666657901
  vertex 0.0 0.15554235944104752 0.6159236811463423
  vertex 0.0 0.09777513855510274 0.7565180695621123
 endloop
endfacet
facet normal 1.0 0.0 0.0
 outer loop
  vertex 0.0 0.11111111111148875 0.8888888888885113
  vertex 0.0 0.0 0.8333333333328952
  vertex 0.0 0.09777513855510274 0.7565180695621123
 endloop
endfacet
facet normal 1.0 0.0 0.0
 outer loop
  vertex 0.0 0.8888888888887586 0.1111111111112414
  vertex 0.0 0.777777777778108 0.222222222221892
  vertex 0.0 0.7641539777404048 0.10212255462795623
 endloop
endfacet
facet normal 1.0 0.0 0.0
 outer loop
  vertex 0.0 0.777777777778108 0.222222222221892
  vertex 0.0 0.6666666666675445 0.3333333333324556
  vertex 0.0 0.6541032220364721 0.17727943980664768
 endloop
endfacet
facet normal 1.0 0.0 0.0
 outer loop
  vertex 0.0 0.777777777778108 0.222222222221892
  vertex 0.0 0.6541032220364721 0.17727943980664768
  vertex 0.0 0.7641539777404048 0.10212255462795623
 endloop
endfacet
facet normal 1.0 0.0 0.0
 outer loop
  vertex 0.0 0.6666666666675445 0.3333333333324556
  vertex 0.0 0.5555555555569809 0.44444444444301906
  vertex 0.0 0.5168652413994379 0.26997226911230954
 endloop
endfacet
facet normal 1.0 0.0 -0.0
 outer loop
  vertex 0.0 0.6541032220364721 0.17727943980664768
  vertex 0.0 0.6666666666675445 0.3333333333324556
  vertex 0.0 0.5168652413994379 0.26997226911230954
 endloop
endfacet
facet normal 1.0 0.0 0.0
 outer loop
  vertex 0.0 0.5555555555569809 0.44444444444301906
  vertex 0.0 0.44444444444595466 0.5555555555540453
  vertex 0.0 0.40959628007735793 0.4025521601593989
 endloop
endfacet
facet normal 1.0 0.0 0.0
 outer loop
  vertex 0.0 0.5555555555569809 0.44444444444301906
  vertex 0.0 0.40959628007735793 0.4025521601593989
  vertex 0.0 0.5168652413994379 0.26997226911230954
 endloop
endfacet
facet normal 1.0 0.0 0.0
 outer loop
  vertex 0.0 0.44444444444595466 0.5555555555540453
  vertex 0.0 0.333333333334466 0.666666666665534
  vertex 0.0 0.2926236962545957 0.49894772924740327
 endloop
endfacet
facet normal 1.0 0.0 -0.0
 outer loop
  vertex 0.0 0.40959628007735793 0.4025521601593989
  vertex 0.0 0.44444444444595466 0.5555555555540453
  vertex 0.0 0.2926236962545957 0.49894772924740327
 endloop
endfacet
facet normal 1.0 0.0 0.0
 outer loop
  vertex 0.0 0.333333333334466 0.666666666665534
  vertex 0.0 0.22222222222297738 0.7777777777770226
  vertex 0.0 0.15554235944104752 0.6159236811463423
 endloop
endfacet
facet normal 1.0 0.0 0.0
 outer loop
  vertex 0.0 0.333333333334466 0.666666666665534
  vertex 0.0 0.15554235944104752 0.6159236811463423
  vertex 0.0 0.2926236962545957 0.49894772924740327
 endloop
endfacet
facet normal 1.0 0.0 0.0
 outer loop
  vertex 0.0 0.22222222222297738 0.7777777777770226
  vertex 0.0 0.11111111111148875 0.8888888888885113
  vertex 0.0 0.09777513855510274 0.7565180695621123
 endloop
endfacet
facet normal 1.0 0.0 -0.0
 outer loop
  vertex 0.0 0.15554235944104752 0.6159236811463423
  vertex 0.0 0.22222222222297738 0.7777777777770226
  vertex 0.0 0.09777513855510274 0.7565180695621123
 endloop
endfacet
facet normal 1.0 0.0 0.0
 outer loop
  vertex 0.0 0.40959628007735793 0.4025521601593989
  vertex 0.0 0.2926236962545957 0.49894772924740327
  vertex 0.0 0.2693818016565821 0.3347738695791109
 endloop
endfacet
facet normal 1.0 0.0 0.0
 outer loop
  vertex 0.0 0.5168652413994379 0.26997226911230954
  vertex 0.0 0.40959628007735793 0.4025521601593989
  vertex 0.0 0.37483200192994237 0.26251620990954533
 endloop
endfacet
facet normal 1.0 0.0 0.0
 outer loop
  vertex 0.0 0.40959628007735793 0.4025521601593989
  vertex 0.0 0.2693818016565821 0.3347738695791109
  vertex 0.0 0.37483200192994237 0.26251620990954533
 endloop
endfacet
facet normal 1.0 0.0 0.0
 outer loop
  vertex 0.0 0.14344395857216646 0.4182144423799884
  vertex 0.0 0.13812854025504284 0.25124282765821504
  vertex 0.0 0.2693818016565821 0.3347738695791109
 endloop
endfacet
facet normal 1.0 -0.0 0.0
 outer loop
  vertex 0.0 0.13812854025504284 0.25124282765821504
  vertex 0.0 0.26165001985073516 0.1609451833999168
  vertex 0.0 0.2693818016565821 0.3347738695791109
 endloop
endfacet
facet normal 1.0 0.0 0.0
 outer loop
  vertex 0.0 0.26165001985073516 0.1609451833999168
  vertex 0.0 0.13812854025504284 0.25124282765821504
  vertex 0.0 0.12200846792784215 0.12200846792784215
 endloop
endfacet
facet normal 1.0 0.0 -0.0
 outer loop
  vertex 0.0 0.41666666666559854 0.14433756729699057
  vertex 0.0 0.5168652413994379 0.26997226911230954
  vertex 0.0 0.37483200192994237 0.26251620990954533
 endloop
endfacet
facet normal 1.0 0.0 0.0
 outer loop
  vertex 0.0 0.5168652413994379 0.26997226911230954
  vertex 0.0 0.41666666666559854 0.14433756729699057
  vertex 0.0 0.5406938011430714 0.11600970773324981
 endloop
endfacet
facet normal 1.0 -0.0 0.0
 outer loop
  vertex 0.0 0.26165001985073516 0.1609451833999168
  vertex 0.0 0.41666666666559854 0.14433756729699057
  vertex 0.0 0.37483200192994237 0.26251620990954533
 endloop
endfacet
facet normal 1.0 0.0 0.0
 outer loop
  vertex 0.0 0.15554235944104752 0.6159236811463423
  vertex 0.0 0.14344395857216646 0.4182144423799884
  vertex 0.0 0.2926236962545957 0.49894772924740327
 endloop
endfacet
facet normal 1.0 0.0 0.0
 outer loop
  vertex 0.0 0.6541032220364721 0.17727943980664768
  vertex 0.0 0.5168652413994379 0.26997226911230954
  vertex 0.0 0.5406938011430714 0.11600970773324981
 endloop
endfacet
facet normal 1.0 0.0 0.0
 outer loop
  vertex 0.0 0.2926236962545957 0.49894772924740327
  vertex 0.0 0.14344395857216646 0.4182144423799884
  vertex 0.0 0.2693818016565821 0.3347738695791109
 endloop
endfacet
facet normal 1.0 0.0 0.0
 outer loop
  vertex 0.0 0.2693818016565821 0.3347738695791109
  vertex 0.0 0.26165001985073516 0.1609451833999168
  vertex 0.0 0.37483200192994237 0.26251620990954533
 endloop
endfacet
facet normal 0.5773502691896258 0.5773502691896257 0.5773502691896257
 outer loop
  vertex 0.8888888888887586 0.1111111111112414 0.0
  vertex 0.8888888888887586 0.0 0.1111111111112414
  vertex 1.0 0.0 0.0
 endloop
endfacet
facet normal 0.5773502691896257 0.5773502691896257 0.5773502691896256
 outer loop
  vertex 0.0 1.0 0.0
  vertex 0.0 0.8888888888887586 0.1111111111112414
  vertex 0.11111111111148875 0.8888888888885113 0.0
 endloop
endfacet
facet normal 0.5773502691896258 0.5773502691896258 0.5773502691896258
 outer loop
  vertex 0.0 0.11111111111148875 0.8888888888885113
  vertex 0.0 0.0 1.0
  vertex 0.11111111111148875 0.0 0.8888888888885113
 endloop
endfacet
facet normal 0.577350269189626 0.5773502691896262 0.5773502691896253
 outer loop
  vertex 0.8888888888887586 0.1111111111112414 0.0
  vertex 0.777777777778108 0.222222222221892 0.0
  vertex 0.777777777778126 0.11111111111097946 0.11111111111089474
 endloop
endfacet
facet normal 0.5773502691896263 0.5773502691896255 0.5773502691896255
 outer loop
  vertex 0.8888888888887586 0.0 0.1111111111112414
  vertex 0.8888888888887586 0.1111111111112414 0.0
  vertex 0.777777777778126 0.11111111111097946 0.11111111111089474
 endloop
endfacet
facet normal 0.5773502691896263 0.5773502691896257 0.5773502691896252
 outer loop
  vertex 0.777777777778108 0.222222222221892 0.0
  vertex 0.6666666666675445 0.3333333333324556 0.0
  vertex 0.6666666666674761 0.22222222222178295 0.11111111111074112
 endloop
endfacet
facet normal 0.5773502691896262 0.5773502691896261 0.5773502691896251
 outer loop
  vertex 0.777777777778126 0.11111111111097946 0.11111111111089474
  vertex 0.777777777778108 0.222222222221892 0.0
  vertex 0.6666666666674761 0.22222222222178295 0.11111111111074112
 endloop
endfacet
facet normal 0.5773502691896258 0.5773502691896264 0.5773502691896253
 outer loop
  vertex 0.6666666666675445 0.3333333333324556 0.0
  vertex 0.5555555555569809 0.44444444444301906 0.0
  vertex 0.5555555555565949 0.3333333333324431 0.11111111111096222
 endloop
endfacet
facet normal 0.5773502691896258 0.577350269189626 0.5773502691896253
 outer loop
  vertex 0.6666666666675445 0.3333333333324556 0.0
  vertex 0.5555555555565949 0.3333333333324431 0.11111111111096222
  vertex 0.6666666666674761 0.22222222222178295 0.11111111111074112
 endloop
endfacet
facet normal 0.577350269189626 0.5773502691896257 0.5773502691896255
 outer loop
  vertex 0.5555555555569809 0.44444444444301906 0.0
  vertex 0.44444444444595466 0.5555555555540453 0.0
  vertex 0.44444444444564896 0.4444444444432542 0.11111111111109688
 endloop
endfacet
facet normal 0.5773502691896256 0.5773502691896263 0.5773502691896252
 outer loop
  vertex 0.5555555555565949 0.3333333333324431 0.11111111111096222
  vertex 0.5555555555569809 0.44444444444301906 0.0
  vertex 0.44444444444564896 0.4444444444432542 0.11111111111109688
 endloop
endfacet
facet normal 0.5773502691896258 0.5773502691896258 0.5773502691896257
 outer loop
  vertex 0.44444444444595466 0.5555555555540453 0.0
  vertex 0.333333333334466 0.666666666665534 0.0
  vertex 0.33333333333458154 0.555555555554161 0.11111111111125746
 endloop
endfacet
facet normal 0.5773502691896258 0.577350269189626 0.5773502691896256
 outer loop
  vertex 0.44444444444595466 0.5555555555540453 0.0
  vertex 0.33333333333458154 0.555555555554161 0.11111111111125746
  vertex 0.44444444444564896 0.4444444444432542 0.11111111111109688
 endloop
endfacet
facet normal 0.5773502691896258 0.5773502691896258 0.5773502691896256
 outer loop
  vertex 0.333333333334466 0.666666666665534 0.0
  vertex 0.22222222222297738 0.7777777777770226 0.0
  vertex 0.22222222222277974 0.6666666666661031 0.11111111111111721
 endloop
endfacet
facet normal 0.5773502691896258 0.5773502691896258 0.5773502691896256
 outer loop
  vertex 0.33333333333458154 0.555555555554161 0.11111111111125746
  vertex 0.333333333334466 0.666666666665534 0.0
  vertex 0.22222222222277974 0.6666666666661031 0.11111111111111721
 endloop
endfacet
facet normal 0.577350269189626 0.577350269189626 0.5773502691896256
 outer loop
  vertex 0.22222222222297738 0.7777777777770226 0.0
  vertex 0.11111111111148875 0.8888888888885113 0.0
  vertex 0.11111111111130156 0.7777777777776748 0.11111111111102374
 endloop
endfacet
facet normal 0.577350269189626 0.5773502691896258 0.5773502691896256
 outer loop
  vertex 0.22222222222277974 0.6666666666661031 0.11111111111111721
  vertex 0.22222222222297738 0.7777777777770226 0.0
  vertex 0.11111111111130156 0.7777777777776748 0.11111111111102374
 endloop
endfacet
facet normal 0.5773502691896257 0.577350269189626 0.5773502691896256
 outer loop
  vertex 0.11111111111148875 0.8888888888885113 0.0
  vertex 0.0 0.8888888888887586 0.1111111111112414
  vertex 0.11111111111130156 0.7777777777776748 0.11111111111102374
 endloop
endfacet
facet normal 0.577350269189626 0.5773502691896252 0.5773502691896261
 outer loop
  vertex 0.777777777778108 0.0 0.222222222221892
  vertex 0.8888888888887586 0.0 0.1111111111112414
  vertex 0.777777777778126 0.11111111111097946 0.11111111111089474
 endloop
endfacet
facet normal 0.5773502691896262 0.5773502691896252 0.5773502691896258
 outer loop
  vertex 0.6666666666675445 0.0 0.3333333333324556
  vertex 0.777777777778108 0.0 0.222222222221892
  vertex 0.6666666666674781 0.11111111111089406 0.22222222222162802
 endloop
endfacet
facet normal 0.5773502691896261 0.5773502691896251 0.5773502691896261
 outer loop
  vertex 0.6666666666674781 0.11111111111089406 0.22222222222162802
  vertex 0.777777777778108 0.0 0.222222222221892
  vertex 0.777777777778126 0.11111111111097946 0.11111111111089474
 endloop
endfacet
facet normal 0.5773502691896257 0.5773502691896255 0.5773502691896263
 outer loop
  vertex 0.5555555555569809 0.0 0.44444444444301906
  vertex 0.6666666666675445 0.0 0.3333333333324556
  vertex 0.5555555555568441 0.11111111111072117 0.3333333333324348
 endloop
endfacet
facet normal 0.5773502691896257 0.5773502691896255 0.5773502691896262
 outer loop
  vertex 0.6666666666675445 0.0 0.3333333333324556
  vertex 0.6666666666674781 0.11111111111089406 0.22222222222162802
  vertex 0.5555555555568441 0.11111111111072117 0.3333333333324348
 endloop
endfacet
facet normal 0.5773502691896261 0.5773502691896253 0.5773502691896258
 outer loop
  vertex 0.44444444444595466 0.0 0.5555555555540453
  vertex 0.5555555555569809 0.0 0.44444444444301906
  vertex 0.4444444444460415 0.11111111111074767 0.44444444444321096
 endloop
endfacet
facet normal 0.5773502691896261 0.5773502691896252 0.577350269189626
 outer loop
  vertex 0.4444444444460415 0.11111111111074767 0.44444444444321096
  vertex 0.5555555555569809 0.0 0.44444444444301906
  vertex 0.5555555555568441 0.11111111111072117 0.3333333333324348
 endloop
endfacet
facet normal 0.5773502691896257 0.5773502691896257 0.5773502691896257
 outer loop
  vertex 0.333333333334466 0.0 0.666666666665534
  vertex 0.44444444444595466 0.0 0.5555555555540453
  vertex 0.33333333333470455 0.11111111111105182 0.5555555555542436
 endloop
endfacet
facet normal 0.5773502691896256 0.5773502691896256 0.5773502691896262
 outer loop
  vertex 0.44444444444595466 0.0 0.5555555555540453
  vertex 0.4444444444460415 0.11111111111074767 0.44444444444321096
  vertex 0.33333333333470455 0.11111111111105182 0.5555555555542436
 endloop
endfacet
facet normal 0.577350269189626 0.5773502691896254 0.577350269189626
 outer loop
  vertex 0.22222222222297738 0.0 0.7777777777770226
  vertex 0.333333333334466 0.0 0.666666666665534
  vertex 0.22222222222314048 0.11111111111124672 0.6666666666656129
 endloop
endfacet
facet normal 0.5773502691896262 0.5773502691896256 0.5773502691896255
 outer loop
  vertex 0.22222222222314048 0.11111111111124672 0.6666666666656129
  vertex 0.333333333334466 0.0 0.666666666665534
  vertex 0.33333333333470455 0.11111111111105182 0.5555555555542436
 endloop
endfacet
facet normal 0.5773502691896261 0.5773502691896252 0.5773502691896261
 outer loop
  vertex 0.11111111111148875 0.0 0.8888888888885113
  vertex 0.22222222222297738 0.0 0.7777777777770226
  vertex 0.11111111111154015 0.11111111111140431 0.7777777777770557
 endloop
endfacet
facet normal 0.5773502691896261 0.5773502691896253 0.5773502691896258
 outer loop
  vertex 0.22222222222297738 0.0 0.7777777777770226
  vertex 0.22222222222314048 0.11111111111124672 0.6666666666656129
  vertex 0.11111111111154015 0.11111111111140431 0.7777777777770557
 endloop
endfacet
facet normal 0.5773502691896254 0.5773502691896254 0.5773502691896263
 outer loop
  vertex 0.0 0.11111111111148875 0.8888888888885113
  vertex 0.11111111111148875 0.0 0.8888888888885113
  vertex 0.11111111111154015 0.11111111111140431 0.7777777777770557
 endloop
endfacet
facet normal 0.5773502691896255 0.5773502691896258 0.5773502691896261
 outer loop
  vertex 0.0 0.8888888888887586 0.1111111111112414
  vertex 0.0 0.777777777778108 0.222222222221892
  vertex 0.11111111111130156 0.7777777777776748 0.11111111111102374
 endloop
endfacet
facet normal 0.5773502691896254 0.5773502691896262 0.5773502691896257
 outer loop
  vertex 0.0 0.777777777778108 0.222222222221892
  vertex 0.0 0.6666666666675445 0.3333333333324556
  vertex 0.11111111111056356 0.6666666666675446 0.22222222222189197
 endloop
endfacet
facet normal 0.5773502691896254 0.5773502691896262 0.5773502691896258
 outer loop
  vertex 0.0 0.777777777778108 0.222222222221892
  vertex 0.11111111111056356 0.6666666666675446 0.22222222222189197
  vertex 0.11111111111130156 0.7777777777776748 0.11111111111102374
 endloop
endfacet
facet normal 0.5773502691896257 0.5773502691896255 0.5773502691896261
 outer loop
  vertex 0.0 0.6666666666675445 0.3333333333324556
  vertex 0.0 0.5555555555569809 0.44444444444301906
  vertex 0.11111111111108576 0.5555555555563354 0.33333333333257886
 endloop
endfacet
facet normal 0.5773502691896257 0.5773502691896255 0.5773502691896261
 outer loop
  vertex 0.11111111111056356 0.6666666666675446 0.22222222222189197
  vertex 0.0 0.6666666666675445 0.3333333333324556
  vertex 0.11111111111108576 0.5555555555563354 0.33333333333257886
 endloop
endfacet
facet normal 0.5773502691896256 0.577350269189626 0.5773502691896256
 outer loop
  vertex 0.0 0.5555555555569809 0.44444444444301906
  vertex 0.0 0.44444444444595466 0.5555555555540453
  vertex 0.11111111111127553 0.44444444444534037 0.4444444444433841
 endloop
endfacet
facet normal 0.5773502691896256 0.577350269189626 0.5773502691896261
 outer loop
  vertex 0.0 0.5555555555569809 0.44444444444301906
  vertex 0.11111111111127553 0.44444444444534037 0.4444444444433841
  vertex 0.11111111111108576 0.5555555555563354 0.33333333333257886
 endloop
endfacet
facet normal 0.5773502691896254 0.577350269189626 0.577350269189626
 outer loop
  vertex 0.0 0.44444444444595466 0.5555555555540453
  vertex 0.0 0.333333333334466 0.666666666665534
  vertex 0.11111111111129324 0.3333333333344607 0.5555555555542462
 endloop
endfacet
facet normal 0.5773502691896255 0.5773502691896261 0.5773502691896255
 outer loop
  vertex 0.11111111111127553 0.44444444444534037 0.4444444444433841
  vertex 0.0 0.44444444444595466 0.5555555555540453
  vertex 0.11111111111129324 0.3333333333344607 0.5555555555542462
 endloop
endfacet
facet normal 0.5773502691896253 0.5773502691896261 0.5773502691896261
 outer loop
  vertex 0.0 0.333333333334466 0.666666666665534
  vertex 0.0 0.22222222222297738 0.7777777777770226
  vertex 0.11111111111163352 0.22222222222271276 0.6666666666656539
 endloop
endfacet
facet normal 0.5773502691896252 0.5773502691896262 0.5773502691896258
 outer loop
  vertex 0.11111111111129324 0.3333333333344607 0.5555555555542462
  vertex 0.0 0.333333333334466 0.666666666665534
  vertex 0.11111111111163352 0.22222222222271276 0.6666666666656539
 endloop
endfacet
facet normal 0.5773502691896252 0.5773502691896261 0.5773502691896261
 outer loop
  vertex 0.0 0.22222222222297738 0.7777777777770226
  vertex 0.0 0.11111111111148875 0.8888888888885113
  vertex 0.11111111111154015 0.11111111111140431 0.7777777777770557
 endloop
endfacet
facet normal 0.5773502691896252 0.5773502691896261 0.5773502691896261
 outer loop
  vertex 0.11111111111163352 0.22222222222271276 0.6666666666656539
  vertex 0.0 0.22222222222297738 0.7777777777770226
  vertex 0.11111111111154015 0.11111111111140431 0.7777777777770557
 endloop
endfacet
facet normal 0.5773502691896254 0.577350269189626 0.577350269189626
 outer loop
  vertex 0.33333333333470455 0.11111111111105182 0.5555555555542436
  vertex 0.4444444444460415 0.11111111111074767 0.44444444444321096
  vertex 0.33333333333479265 0.22222222222171684 0.4444444444434905
 endloop
endfacet
facet normal 0.577350269189626 0.5773502691896255 0.5773502691896258
 outer loop
  vertex 0.4444444444460415 0.11111111111074767 0.44444444444321096
  vertex 0.5555555555568441 0.11111111111072117 0.3333333333324348
  vertex 0.4444444444460811 0.22222222222140925 0.3333333333325098
 endloop
endfacet
facet normal 0.5773502691896253 0.5773502691896258 0.5773502691896262
 outer loop
  vertex 0.4444444444460415 0.11111111111074767 0.44444444444321096
  vertex 0.4444444444460811 0.22222222222140925 0.3333333333325098
  vertex 0.33333333333479265 0.22222222222171684 0.4444444444434905
 endloop
endfacet
facet normal 0.5773502691896258 0.5773502691896258 0.5773502691896258
 outer loop
  vertex 0.33333333333458154 0.555555555554161 0.11111111111125746
  vertex 0.22222222222277974 0.6666666666661031 0.11111111111111721
  vertex 0.222222222222748 0.555555555555233 0.22222222222201907
 endloop
endfacet
facet normal 0.5773502691896258 0.5773502691896256 0.5773502691896257
 outer loop
  vertex 0.33333333333458154 0.555555555554161 0.11111111111125746
  vertex 0.222222222222748 0.555555555555233 0.22222222222201907
  vertex 0.33333333333437615 0.4444444444434618 0.22222222222216204
 endloop
endfacet
facet normal 0.5773502691896256 0.5773502691896257 0.577350269189626
 outer loop
  vertex 0.33333333333458154 0.555555555554161 0.11111111111125746
  vertex 0.33333333333437615 0.4444444444434618 0.22222222222216204
  vertex 0.44444444444564896 0.4444444444432542 0.11111111111109688
 endloop
endfacet
facet normal 0.5773502691896254 0.5773502691896262 0.5773502691896258
 outer loop
  vertex 0.22222222222318058 0.44444444444381986 0.33333333333299964
  vertex 0.11111111111127553 0.44444444444534037 0.4444444444433841
  vertex 0.22222222222336482 0.3333333333329817 0.4444444444436536
 endloop
endfacet
facet normal 0.5773502691896255 0.5773502691896258 0.577350269189626
 outer loop
  vertex 0.11111111111127553 0.44444444444534037 0.4444444444433841
  vertex 0.22222222222318058 0.44444444444381986 0.33333333333299964
  vertex 0.11111111111108576 0.5555555555563354 0.33333333333257886
 endloop
endfacet
facet normal 0.5773502691896255 0.5773502691896262 0.5773502691896256
 outer loop
  vertex 0.22222222222336482 0.3333333333329817 0.4444444444436536
  vertex 0.11111111111127553 0.44444444444534037 0.4444444444433841
  vertex 0.11111111111129324 0.3333333333344607 0.5555555555542462
 endloop
endfacet
facet normal 0.5773502691896255 0.5773502691896262 0.5773502691896256
 outer loop
  vertex 0.4444444444454918 0.3333333333324303 0.22222222222207805
  vertex 0.5555555555565949 0.3333333333324431 0.11111111111096222
  vertex 0.44444444444564896 0.4444444444432542 0.11111111111109688
 endloop
endfacet
facet normal 0.577350269189626 0.5773502691896255 0.577350269189626
 outer loop
  vertex 0.5555555555565949 0.3333333333324431 0.11111111111096222
  vertex 0.4444444444454918 0.3333333333324303 0.22222222222207805
  vertex 0.5555555555566096 0.22222222222165583 0.22222222222173463
 endloop
endfacet
facet normal 0.5773502691896256 0.5773502691896256 0.5773502691896261
 outer loop
  vertex 0.5555555555565949 0.3333333333324431 0.11111111111096222
  vertex 0.5555555555566096 0.22222222222165583 0.22222222222173463
  vertex 0.6666666666674761 0.22222222222178295 0.11111111111074112
 endloop
endfacet
facet normal 0.5773502691896263 0.5773502691896254 0.5773502691896256
 outer loop
  vertex 0.22222222222314048 0.11111111111124672 0.6666666666656129
  vertex 0.33333333333470455 0.11111111111105182 0.5555555555542436
  vertex 0.222222222223879 0.22222222222163596 0.5555555555544852
 endloop
endfacet
facet normal 0.577350269189626 0.5773502691896257 0.5773502691896257
 outer loop
  vertex 0.22222222222314048 0.11111111111124672 0.6666666666656129
  vertex 0.11111111111163352 0.22222222222271276 0.6666666666656539
  vertex 0.11111111111154015 0.11111111111140431 0.7777777777770557
 endloop
endfacet
facet normal 0.5773502691896258 0.5773502691896255 0.5773502691896258
 outer loop
  vertex 0.11111111111163352 0.22222222222271276 0.6666666666656539
  vertex 0.22222222222314048 0.11111111111124672 0.6666666666656129
  vertex 0.222222222223879 0.22222222222163596 0.5555555555544852
 endloop
endfacet
facet normal 0.5773502691896261 0.5773502691896255 0.5773502691896255
 outer loop
  vertex 0.22222222222277974 0.6666666666661031 0.11111111111111721
  vertex 0.11111111111056356 0.6666666666675446 0.22222222222189197
  vertex 0.222222222222748 0.555555555555233 0.22222222222201907
 endloop
endfacet
facet normal 0.5773502691896261 0.5773502691896257 0.5773502691896255
 outer loop
  vertex 0.11111111111056356 0.6666666666675446 0.22222222222189197
  vertex 0.22222222222277974 0.6666666666661031 0.11111111111111721
  vertex 0.11111111111130156 0.7777777777776748 0.11111111111102374
 endloop
endfacet
facet normal 0.577350269189626 0.5773502691896254 0.577350269189626
 outer loop
  vertex 0.222222222222748 0.555555555555233 0.22222222222201907
  vertex 0.11111111111056356 0.6666666666675446 0.22222222222189197
  vertex 0.11111111111108576 0.5555555555563354 0.33333333333257886
 endloop
endfacet
facet normal 0.5773502691896258 0.5773502691896257 0.5773502691896257
 outer loop
  vertex 0.6666666666674781 0.11111111111089406 0.22222222222162802
  vertex 0.777777777778126 0.11111111111097946 0.11111111111089474
  vertex 0.6666666666674761 0.22222222222178295 0.11111111111074112
 endloop
endfacet
facet normal 0.5773502691896255 0.577350269189626 0.5773502691896258
 outer loop
  vertex 0.6666666666674781 0.11111111111089406 0.22222222222162802
  vertex 0.5555555555566096 0.22222222222165583 0.22222222222173463
  vertex 0.5555555555568441 0.11111111111072117 0.3333333333324348
 endloop
endfacet
facet normal 0.5773502691896254 0.577350269189626 0.5773502691896258
 outer loop
  vertex 0.5555555555566096 0.22222222222165583 0.22222222222173463
  vertex 0.6666666666674781 0.11111111111089406 0.22222222222162802
  vertex 0.6666666666674761 0.22222222222178295 0.11111111111074112
 endloop
endfacet
facet normal 0.577350269189626 0.5773502691896257 0.5773502691896255
 outer loop
  vertex 0.33333333333437615 0.4444444444434618 0.22222222222216204
  vertex 0.222222222222748 0.555555555555233 0.22222222222201907
  vertex 0.22222222222318058 0.44444444444381986 0.33333333333299964
 endloop
endfacet
facet normal 0.5773502691896256 0.577350269189626 0.5773502691896256
 outer loop
  vertex 0.22222222222318058 0.44444444444381986 0.33333333333299964
  vertex 0.222222222222748 0.555555555555233 0.22222222222201907
  vertex 0.11111111111108576 0.5555555555563354 0.33333333333257886
 endloop
endfacet
facet normal 0.5773502691896258 0.577350269189626 0.5773502691896254
 outer loop
  vertex 0.33333333333437615 0.4444444444434618 0.22222222222216204
  vertex 0.22222222222318058 0.44444444444381986 0.33333333333299964
  vertex 0.33333333333468557 0.33333333333247406 0.3333333333328405
 endloop
endfacet
facet normal 0.5773502691896255 0.5773502691896263 0.5773502691896257
 outer loop
  vertex 0.33333333333437615 0.4444444444434618 0.22222222222216204
  vertex 0.33333333333468557 0.33333333333247406 0.3333333333328405
  vertex 0.4444444444454918 0.3333333333324303 0.22222222222207805
 endloop
endfacet
facet normal 0.5773502691896254 0.5773502691896262 0.5773502691896255
 outer loop
  vertex 0.33333333333437615 0.4444444444434618 0.22222222222216204
  vertex 0.4444444444454918 0.3333333333324303 0.22222222222207805
  vertex 0.44444444444564896 0.4444444444432542 0.11111111111109688
 endloop
endfacet
facet normal 0.5773502691896257 0.577350269189626 0.5773502691896256
 outer loop
  vertex 0.33333333333468557 0.33333333333247406 0.3333333333328405
  vertex 0.22222222222318058 0.44444444444381986 0.33333333333299964
  vertex 0.22222222222336482 0.3333333333329817 0.4444444444436536
 endloop
endfacet
facet normal 0.5773502691896261 0.5773502691896253 0.5773502691896258
 outer loop
  vertex 0.33333333333468557 0.33333333333247406 0.3333333333328405
  vertex 0.22222222222336482 0.3333333333329817 0.4444444444436536
  vertex 0.33333333333479265 0.22222222222171684 0.4444444444434905
 endloop
endfacet
facet normal 0.5773502691896256 0.5773502691896258 0.5773502691896258
 outer loop
  vertex 0.4444444444454918 0.3333333333324303 0.22222222222207805
  vertex 0.33333333333468557 0.33333333333247406 0.3333333333328405
  vertex 0.4444444444460811 0.22222222222140925 0.3333333333325098
 endloop
endfacet
facet normal 0.5773502691896254 0.5773502691896257 0.5773502691896263
 outer loop
  vertex 0.4444444444460811 0.22222222222140925 0.3333333333325098
  vertex 0.33333333333468557 0.33333333333247406 0.3333333333328405
  vertex 0.33333333333479265 0.22222222222171684 0.4444444444434905
 endloop
endfacet
facet normal 0.5773502691896256 0.5773502691896258 0.5773502691896257
 outer loop
  vertex 0.22222222222336482 0.3333333333329817 0.4444444444436536
  vertex 0.11111111111129324 0.3333333333344607 0.5555555555542462
  vertex 0.222222222223879 0.22222222222163596 0.5555555555544852
 endloop
endfacet
facet normal 0.5773502691896263 0.5773502691896256 0.5773502691896254
 outer loop
  vertex 0.33333333333479265 0.22222222222171684 0.4444444444434905
  vertex 0.22222222222336482 0.3333333333329817 0.4444444444436536
  vertex 0.222222222223879 0.22222222222163596 0.5555555555544852
 endloop
endfacet
facet normal 0.5773502691896261 0.5773502691896256 0.5773502691896256
 outer loop
  vertex 0.5555555555566096 0.22222222222165583 0.22222222222173463
  vertex 0.4444444444454918 0.3333333333324303 0.22222222222207805
  vertex 0.4444444444460811 0.22222222222140925 0.3333333333325098
 endloop
endfacet
facet normal 0.5773502691896257 0.577350269189626 0.5773502691896256
 outer loop
  vertex 0.11111111111129324 0.3333333333344607 0.5555555555542462
  vertex 0.11111111111163352 0.22222222222271276 0.6666666666656539
  vertex 0.222222222223879 0.22222222222163596 0.5555555555544852
 endloop
endfacet
facet normal 0.5773502691896264 0.5773502691896255 0.5773502691896255
 outer loop
  vertex 0.33333333333470455 0.11111111111105182 0.5555555555542436
  vertex 0.33333333333479265 0.22222222222171684 0.4444444444434905
  vertex 0.222222222223879 0.22222222222163596 0.5555555555544852
 endloop
endfacet
facet normal 0.5773502691896261 0.5773502691896257 0.5773502691896256
 outer loop
  vertex 0.5555555555568441 0.11111111111072117 0.3333333333324348
  vertex 0.5555555555566096 0.22222222222165583 0.22222222222173463
  vertex 0.4444444444460811 0.22222222222140925 0.3333333333325098
 endloop
endfacet
endsolid
